<?xml version="1.0" encoding="UTF-8" standalone="no"?><!DOCTYPE svg PUBLIC "-//W3C//DTD SVG 1.1//EN" "http://www.w3.org/Graphics/SVG/1.1/DTD/svg11.dtd"><svg width="100%" height="100%" viewBox="0 0 225 276" version="1.1" xmlns="http://www.w3.org/2000/svg" xmlns:xlink="http://www.w3.org/1999/xlink" xml:space="preserve" xmlns:serif="http://www.serif.com/" style="fill-rule:evenodd;clip-rule:evenodd;stroke-linecap:round;stroke-linejoin:round;stroke-miterlimit:1.5;"><path d="M196.523,204.27c-2.804,-10.235 -8.935,-19.94 -19.94,-19.94l-108.775,0c-12.685,0.069 -17.519,21.503 -17.519,21.503l-9.409,38.318c0,11.005 8.935,19.94 19.94,19.94l124.968,0c11.006,0 19.941,-8.935 19.941,-19.94l-9.206,-39.881Z" style="fill:#592285;"/><circle cx="123.304" cy="224.211" r="13.89" style="fill:#fdfcfd;"/><path d="M75.908,166.852l92.401,0c0,0 19.967,-74.566 18.769,-97.572c-1.669,-32.034 6.85,-46.757 16.509,-51.176c9.659,-4.418 -145.061,0 -145.061,0c0,0 -6.614,107.638 17.382,148.748Z" style="fill:none;stroke:#592285;stroke-width:17px;"/><path d="M92.883,64.054l57.687,0" style="fill:none;stroke:#8c00ff;stroke-width:9px;"/><path d="M92.883,83.945l57.687,0" style="fill:none;stroke:#8c00ff;stroke-width:9px;"/><path d="M92.883,104.649l57.687,0" style="fill:none;stroke:#8c00ff;stroke-width:9px;"/><path d="M56.085,36.574c0,0 -31.69,-4.113 -33.726,16.672c-2.036,20.786 -0.938,43.219 0.006,62.55" style="fill:none;stroke:#592285;stroke-width:17px;"/></svg>